<?xml version="1.0" standalone="no"?>
<!DOCTYPE svg PUBLIC "-//W3C//DTD SVG 20010904//EN"
 "http://www.w3.org/TR/2001/REC-SVG-20010904/DTD/svg10.dtd">
<svg version="1.0" xmlns="http://www.w3.org/2000/svg"
 width="300.000000pt" height="300.000000pt" viewBox="0 0 300.000000 300.000000"
 preserveAspectRatio="xMidYMid meet">
<metadata>
Created by potrace 1.10, written by Peter Selinger 2001-2011
</metadata>
<g transform="translate(0.000000,300.000000) scale(0.100000,-0.100000)"
fill="#000000" stroke="none">
<path d="M514 1816 c-46 -11 -144 -63 -144 -76 0 -3 28 -3 62 -2 83 5 131 -11
179 -59 44 -44 55 -46 40 -6 -11 29 -70 77 -94 77 -9 0 -21 9 -27 20 -11 21
-10 22 60 23 79 1 160 -47 186 -109 12 -28 11 -36 -6 -71 -44 -92 -117 -124
-240 -104 -74 12 -129 6 -181 -20 -34 -17 -94 -77 -86 -85 2 -2 21 6 43 17 35
18 48 20 124 13 138 -13 204 -9 242 13 20 12 32 26 30 36 -2 10 4 20 14 24 9
3 28 18 42 32 23 23 27 24 30 8 8 -41 -73 -157 -143 -204 -48 -32 -151 -63
-211 -63 -47 0 -55 3 -52 17 5 27 67 51 139 54 35 1 71 6 79 10 74 35 90 46
105 71 l17 29 -44 -31 c-52 -36 -100 -49 -182 -50 -45 0 -70 -6 -102 -25 -37
-22 -84 -78 -84 -100 0 -4 51 -5 113 -3 126 6 191 26 268 82 131 96 174 287
91 403 -48 67 -171 103 -268 79z m-1 -342 c4 -1 10 -3 15 -4 4 -1 18 -2 32 -1
25 0 24 0 -3 -10 -30 -12 -92 5 -81 22 3 5 11 6 17 2 7 -4 15 -8 20 -9z"/>
<path d="M970 1533 l0 -163 80 0 c84 0 132 15 144 45 13 34 6 79 -16 102 -20
21 -20 24 -5 41 26 28 22 84 -8 112 -21 20 -35 23 -110 24 l-85 2 0 -163z
m154 101 c19 -18 20 -28 6 -55 -8 -15 -21 -19 -58 -19 l-47 0 0 45 0 45 42 0
c24 0 48 -6 57 -16z m10 -140 c37 -36 5 -74 -62 -74 l-47 0 0 45 -1 45 48 0
c29 0 52 -6 62 -16z"/>
<path d="M2340 1580 c0 -133 9 -164 57 -195 33 -22 96 -25 140 -6 57 24 67 51
71 194 l4 127 -31 0 -31 0 0 -114 c0 -99 -3 -117 -21 -140 -16 -20 -29 -26
-59 -26 -61 0 -70 21 -70 162 l0 118 -30 0 -30 0 0 -120z"/>
<path d="M2660 1535 l0 -165 30 0 30 0 0 165 0 165 -30 0 -30 0 0 -165z"/>
<path d="M385 1640 c-28 -11 -66 -34 -85 -51 -32 -28 -33 -30 -10 -24 82 19
138 24 199 15 101 -15 171 -12 217 9 67 31 62 54 -6 28 -36 -13 -61 -15 -57
-4 2 7 -15 20 -37 29 -56 23 -158 22 -221 -2z"/>
<path d="M1310 1590 c-16 -16 -20 -17 -20 -5 0 10 -10 15 -27 15 l-28 0 0
-115 0 -115 28 0 c27 0 27 1 27 68 0 75 16 109 53 114 31 4 38 58 8 58 -12 0
-30 -9 -41 -20z"/>
<path d="M1445 1601 c-57 -24 -83 -117 -50 -180 20 -39 74 -65 116 -56 35 8
79 42 79 61 0 19 -44 18 -60 -1 -19 -23 -66 -19 -84 7 -9 12 -16 26 -16 30 0
5 38 8 85 8 79 0 85 1 85 20 0 82 -82 140 -155 111z m93 -68 l14 -23 -61 0
c-33 0 -61 3 -61 7 0 3 8 15 17 25 23 25 71 20 91 -9z"/>
<path d="M1694 1600 c-39 -15 -64 -59 -64 -109 0 -61 17 -92 64 -115 32 -16
44 -17 77 -7 34 10 69 42 69 63 0 14 -47 8 -60 -7 -19 -23 -66 -19 -84 7 -9
12 -16 26 -16 30 0 5 38 8 85 8 80 0 85 1 85 21 0 36 -31 89 -61 104 -31 17
-63 18 -95 5z m94 -67 l14 -23 -61 0 c-33 0 -61 3 -61 7 0 3 8 15 17 25 23 25
71 20 91 -9z"/>
<path d="M2138 1594 c-54 -29 -72 -101 -43 -170 29 -71 135 -80 185 -16 l22
27 -27 3 c-15 2 -35 -4 -44 -12 -31 -29 -80 -15 -94 27 -6 15 2 17 78 17 84 0
85 0 85 25 0 59 -56 116 -112 115 -13 -1 -35 -7 -50 -16z m96 -50 c27 -27 18
-34 -45 -34 -61 0 -63 2 -36 38 13 17 62 15 81 -4z"/>
<path d="M1872 1578 c3 -20 8 -22 61 -19 l59 3 -61 -74 c-34 -41 -61 -84 -61
-96 0 -21 4 -22 95 -22 95 0 95 0 95 25 0 24 -3 25 -60 25 l-60 0 60 73 c84
103 82 107 -36 107 -93 0 -95 -1 -92 -22z"/>
</g>
</svg>
